<?xml version="1.0" standalone="yes"?>
<svg xmlns="http://www.w3.org/2000/svg" width="970" height="970">
<path style="fill:#010101; stroke:none;" d="M0 0L0 454L1 454C1 407.753 13.8926 359.07 29.9498 316C80.8933 179.354 193.664 70.4453 332 24.3333C370.52 11.4935 413.191 1 454 1C443.496 -3.40765 425.42 0 414 0L321 0L0 0z"/>
<path style="fill:#e1d387; stroke:none;" d="M190 101C186.07 101.64 183.845 104.18 180.715 106.576C173.446 112.136 158.826 121.206 156 130C151.33 130.507 147.564 136.102 144.333 139.333C135.157 148.51 125.579 157.434 117.59 167.675C86.4262 207.626 58.6815 247.12 38.5123 294C-18.2643 425.967 -13.3133 585.118 55.3086 712C89.3539 774.95 135.448 828.765 192 872.575C278.721 939.757 385.564 970 494 970C552.657 970 611.561 957.576 666 935.8C721.7 913.519 773.089 880.814 817 839.911C997.151 672.096 1021.02 382.375 869.576 188C829.519 136.588 779.751 93.4896 723 61.4244C596.865 -9.84332 439.424 -19.9631 305 33.8002C274.539 45.983 245.332 60.982 218 79.1667C209.632 84.7339 194.581 91.8858 190 101z"/>
<path style="fill:#010101; stroke:none;" d="M516 0L516 1C562.247 1 610.93 13.8926 654 29.9498C790.646 80.8931 899.555 193.664 945.667 332C958.507 370.52 969 413.191 969 454L970 454L970 0L516 0z"/>
<path style="fill:#ebdfab; stroke:none;" d="M219 78L220 79L219 78M213 82L214 83L213 82M205 88L206 89L205 88M199 92L200 93L199 92M191 98L192 99L191 98M189 100L190 101L189 100M183 104L184 105L183 104M181 106L182 107L181 106M171 114L172 115L171 114M169 116L170 117L169 116M167 118L168 119L167 118M155.333 128.667L155.667 129.333L155.333 128.667M153 130L154 131L153 130M151 132L152 133L151 132M149 134L150 135L149 134M147 136L148 137L147 136M145 138L146 139L145 138M143 140L144 141L143 140M141 142L142 143L141 142M139 144L140 145L139 144M137 146L138 147L137 146M135 148L136 149L135 148M133 150L134 151L133 150M131 152L132 153L131 152M129 154L130 155L129 154M127 156L128 157L127 156M117 168L118 169L117 168M115 170L116 171L115 170M113 172L114 173L113 172M107 180L108 181L107 180M105 182L106 183L105 182M99 190L100 191L99 190M97 192L98 193L97 192M93 198L94 199L93 198M87 206L88 207L87 206M83 212L84 213L83 212M79 218L80 219L79 218z"/>
<path style="fill:#969a68; stroke:none;" d="M322 221L322 640L322 748L322 776L323.028 786.258L342 788L398 788L398 786L324 786L324 223L450 223C484.616 223 518.827 222.26 553 228.463C570.798 231.694 589.146 237.452 605.561 245.011C615.09 249.399 624.027 257.005 634 260C629.613 254.992 623.176 252.676 617.561 249.338C597.714 237.537 573.63 230.614 551 226.806C476.653 214.296 397.453 221 322 221z"/>
<path style="fill:#546a4d; stroke:none;" d="M324 223L324 786L398 786L398 682L398 585C398 578.018 394.469 556.769 399.603 551.742C404.001 547.437 418.221 550 424 550C445.309 550 476.598 544.987 491.421 564.152C530.421 614.578 566.598 667.316 603.965 718.884C612.83 731.119 622.182 743.058 630.791 755.475C637.399 765.005 643.778 776.845 654.425 782.289C663.347 786.852 675.238 786 685 786L738 786L721.514 762.37L680.576 706.849L569.421 555.427L550 537C566.465 536.514 585.867 527.268 600.4 520C630.879 504.757 655.802 482.102 671.786 451.789C701.582 395.281 693.034 313.685 644.964 269.692C596.78 225.596 526.446 223 465 223L324 223z"/>
<path style="fill:#ebdfab; stroke:none;" d="M75 224L76 225L75 224M71.3333 230.667L71.6667 231.333L71.3333 230.667M69 234L70 235L69 234M65 240L66 241L65 240M63 244L64 245L63 244M61.3333 247.667L61.6667 248.333L61.3333 247.667M55 258L56 259L55 258z"/>
<path style="fill:#969a68; stroke:none;" d="M634.667 261.333L635.333 261.667L634.667 261.333z"/>
<path style="fill:#ebdfab; stroke:none;" d="M53 262L54 263L53 262z"/>
<path style="fill:#969a68; stroke:none;" d="M636 262L640 265L636 262M640 265L640 267L642 267L642 265L640 265z"/>
<path style="fill:#ebdfab; stroke:none;" d="M51 266L52 267L51 266z"/>
<path style="fill:#969a68; stroke:none;" d="M642.667 267.333L643.333 267.667L642.667 267.333M644.667 269.333L645.333 269.667L644.667 269.333z"/>
<path style="fill:#ebdfab; stroke:none;" d="M49 270L50 271L49 270z"/>
<path style="fill:#969a68; stroke:none;" d="M646.667 271.333L647.333 271.667L646.667 271.333M648.667 273.333L649.333 273.667L648.667 273.333z"/>
<path style="fill:#ebdfab; stroke:none;" d="M47 274L48 275L47 274z"/>
<path style="fill:#969a68; stroke:none;" d="M650.667 275.333L651.333 275.667L650.667 275.333M652.667 277.333L653.333 277.667L652.667 277.333M654.667 279.333L655.333 279.667L654.667 279.333M398 284L445 283L513 284.428L570 300C560.563 292.182 544.814 289.185 533.089 286.756C502.592 280.439 471.182 281 440 281L410 281C405.647 281 400.738 280.124 398 284M656 281L656 283L658 283L658 281L656 281z"/>
<path style="fill:#e1d387; stroke:none;" d="M400 289L400 290L400 291L398 291L398 292L398 293C400.897 296.824 400.897 303.176 398 307L398 308L398 309L398 313L398 314L398 315L400 329L400 362L398 377L398 378L398 379L398 383L398 384L398 385C403.611 392.407 400 411.808 400 421C400 425.247 400.641 429.514 398 433L398 434L398 435C401.832 440.058 401.832 457.942 398 463L398 464L398 465C401.603 469.755 401.603 484.245 398 489L398 490L398 491L400 491L400 492L400 493L398 495C451.834 495 515.241 503.653 563.829 475.706C619.022 443.961 636.727 348.281 580.69 307.861C543.273 280.872 494.951 283 451 283L409 283C405.882 283.001 393.839 283.601 400 289z"/>
<path style="fill:#969a68; stroke:none;" d="M658 283L658 285L660 285L660 283L658 283M660.667 287.333L661.333 287.667L660.667 287.333M398 289L398 291L400 291L400 289L398 289M662 289L662 291L664 291L664 289L662 289M664 291L664 293L666 293L666 291L664 291z"/>
<path style="fill:#ebdfab; stroke:none;" d="M39 292L40 293L39 292z"/>
<path style="fill:#969a68; stroke:none;" d="M398 293L398 307L400 307L400 293L398 293M666.667 295.333L667.333 295.667L666.667 295.333z"/>
<path style="fill:#ebdfab; stroke:none;" d="M37 296L38 297L37 296z"/>
<path style="fill:#969a68; stroke:none;" d="M668 298L668 300L670 300L670 298L668 298M570 301L570 302L574 303L570 301M670 301L670 303L672 303L672 301L670 301M574.667 303.333L575.333 303.667L574.667 303.333M576 305L576 306L580 307L576 305M672 305L672 307L674 307L674 305L672 305z"/>
<path style="fill:#ebdfab; stroke:none;" d="M33 306L34 307L33 306z"/>
<path style="fill:#969a68; stroke:none;" d="M580.667 307.333L581.333 307.667L580.667 307.333M398 309L398 313L400 313L400 309L398 309M582.667 309.333L583.333 309.667L582.667 309.333M674 309L674 311L676 311L676 309L674 309M584.667 311.333L585.333 311.667L584.667 311.333z"/>
<path style="fill:#ebdfab; stroke:none;" d="M31 312L32 313L31 312z"/>
<path style="fill:#969a68; stroke:none;" d="M586.667 312.333L587.333 312.667L586.667 312.333M588 313L588 315L590 315L590 313L588 313M676 313L676 316L678 316L678 313L676 313M398 315L398 377L400 377L400 315L398 315M590 315L590 317L592 317L592 315L590 315M592 318L592 320L594 320L594 318L592 318M678 319L678 322L680 322L680 319L678 319M594.667 321.333L595.333 321.667L594.667 321.333z"/>
<path style="fill:#ebdfab; stroke:none;" d="M27 322L28 323L27 322z"/>
<path style="fill:#969a68; stroke:none;" d="M596 323L596 325L598 325L598 323L596 323M680 325L680 327L682 327L682 325L680 325M598 326L598 328L600 328L600 326L598 326z"/>
<path style="fill:#ebdfab; stroke:none;" d="M25 328L26 329L25 328z"/>
<path style="fill:#969a68; stroke:none;" d="M600 329L600 331L602 331L602 329L600 329M682 330L682 335L684 335L684 330L682 330M602 332L602 334L604 334L604 332L602 332z"/>
<path style="fill:#ebdfab; stroke:none;" d="M23 334L24 335L23 334z"/>
<path style="fill:#969a68; stroke:none;" d="M604 336L604 338L606 338L606 336L604 336M684 339L684 343L686 343L686 339L684 339z"/>
<path style="fill:#ebdfab; stroke:none;" d="M21 340L22 341L21 340z"/>
<path style="fill:#969a68; stroke:none;" d="M606 341L606 343L608 343L608 341L606 341M608 346L608 349L610 349L610 346L608 346M686 348L686 356L688 356L688 348L686 348M610 352L610 356L612 356L612 352L610 352M612 361L612 368L614 368L614 361L612 361M688 367L688 390L690 390L690 367L688 367M398 379L398 383L400 383L400 379L398 379M614 383L614 385L616 385L616 383L614 383M398 385L398 433L400 433L400 385L398 385M612 399L612 407L614 407L614 399L612 399M686 401L686 408L688 408L688 401L686 401M610 411L610 415L612 415L612 411L610 411M684 413L684 417L686 417L686 413L684 413M608 419L608 422L610 422L610 419L608 419M682 422L682 425L684 425L684 422L682 422M606 425L606 427L608 427L608 425L606 425M680 428L680 431L682 431L682 428L680 428M604 430L604 432L606 432L606 430L604 430M602 434L602 436L604 436L604 434L602 434M398 435L398 463L400 463L400 435L398 435M678 435L678 437L680 437L680 435L678 435M600 438L600 440L602 440L602 438L600 438M676 439L676 442L678 442L678 439L676 439M598 441L598 443L600 443L600 441L598 441M674 444L674 447L676 447L676 444L674 444M596.667 445.333L597.333 445.667L596.667 445.333M594 447L594 449L596 449L596 447L594 447M672 449L672 451L674 451L674 449L672 449M592.667 451.333L593.333 451.667L592.667 451.333M590.667 453.333L591.333 453.667L590.667 453.333M670.667 453.333L671.333 453.667L670.667 453.333M588.667 455.333L589.333 455.667L588.667 455.333M668 456L668 458L670 458L670 456L668 456M586 457L586 459L588 459L588 457L586 457M584 459L584 461L586 461L586 459L584 459M666 459L666 461L668 461L668 459L666 459M582 461L582 463L584 463L584 461L582 461M580 463L580 465L582 465L582 463L580 463M664 463L664 465L666 465L666 463L664 463M398 465L398 489L400 489L400 465L398 465M578.667 465.333L579.333 465.667L578.667 465.333M662 466L662 468L664 468L664 466L662 466M576.667 467.333L577.333 467.667L576.667 467.333M572 471L576 468L572 471M660 469L660 471L662 471L662 469L660 469M570.667 471.333L571.333 471.667L570.667 471.333M658.667 472.333L659.333 472.667L658.667 472.333M566 475L570 474L566 475M564.667 475.333L565.333 475.667L564.667 475.333M656.667 475.333L657.333 475.667L656.667 475.333M560 477L560 478L564 476L560 477M654 477L654 479L656 479L656 477L654 477M556 479L556 480L560 478L556 479M652 479L652 481L654 481L654 479L652 479M552 481L552 482L556 480L552 481M546 485L552 482L546 485M650.667 482.333L651.333 482.667L650.667 482.333M648 484L648 486L650 486L650 484L648 484M540 487L546 486L540 487M646 486L646 488L648 488L648 486L646 486M532 488L532 489L540 488L532 488M514 492L514 493L532 490L514 492M644.667 489.333L645.333 489.667L644.667 489.333M398 491L398 493L400 493L400 491L398 491M642.667 491.333L643.333 491.667L642.667 491.333M640 492L640 494L642 494L642 492L640 492M398 495L398 496L432 497L514 494L482 495L398 495M638.667 494.333L639.333 494.667L638.667 494.333M636 495L636 497L638 497L638 495L636 495M634 497L634 499L636 499L636 497L634 497M632.667 499.333L633.333 499.667L632.667 499.333M630.667 501.333L631.333 501.667L630.667 501.333M626 505L630 504L626 505M624.667 505.333L625.333 505.667L624.667 505.333M622.667 507.333L623.333 507.667L622.667 507.333M618 511L622 508L618 511M614 513L618 512L614 513M612.667 513.333L613.333 513.667L612.667 513.333M608 517L612 514L608 517z"/>
<path style="fill:#010101; stroke:none;" d="M0 516L0 970L454 970L454 969C413.6 969 371.144 958.715 333 946C203.209 902.736 98.1233 806.099 41.3086 682C24.8565 646.064 14.1517 607.736 6.80401 569C4.69056 557.858 2.99429 546.305 2.08565 535C1.61773 529.178 2.23541 521.327 0 516M969 516C969 562.247 956.107 610.93 940.05 654C889.107 790.646 776.335 899.555 638 945.667C599.48 958.507 556.809 969 516 969L516 970L970 970L970 649L970 556C970 544.58 973.408 526.504 969 516z"/>
<path style="fill:#969a68; stroke:none;" d="M604 519L608 518L604 519M600 521L604 520L600 521M596 523L600 522L596 523M592 525L596 524L592 525M588 525L588 526L592 526L588 525M586.667 526.333L587.333 526.667L586.667 526.333M582 529L586 528L582 529M576 531L582 530L576 531M570 533L576 532L570 533M556 535L556 537L570 534L556 535M550 539L556 538L550 539M552 539L552 541L554 541L554 539L552 539M554.667 541.333L555.333 541.667L554.667 541.333M556.667 543.333L557.333 543.667L556.667 543.333M558 544L562 547L558 544M562 547L562 549L564 549L564 547L562 547M564 549L564 551L566 551L566 549L564 549M398 551L398 552L474 553L474 551C449.896 551 421.626 545.375 398 551M566 551L566 553L568 553L568 551L566 551M398 553L398 561L400 561L400 553L398 553M474 553L474 554L478 554L474 553M568 553L568 555L570 555L570 553L568 553M478.667 554.333L479.333 554.667L478.667 554.333M480.667 555.333L481.333 555.667L480.667 555.333M570 556L570 558L572 558L572 556L570 556M482.667 557.333L483.333 557.667L482.667 557.333M484.667 558.333L485.333 558.667L484.667 558.333M486 559L486 561L488 561L488 559L486 559M572 559L572 561L574 561L574 559L572 559M488 561L488 563L490 563L490 561L488 561M574 561L574 563L576 563L576 561L574 561M398 563L398 567L400 567L400 563L398 563M490 563L490 565L492 565L492 563L490 563M576.667 565.333L577.333 565.667L576.667 565.333M492 566L492 568L494 568L494 566L492 566M578 567L578 569L580 569L580 567L578 567M398 569L398 769L400 769L400 569L398 569M494.667 569.333L495.333 569.667L494.667 569.333M580 570L580 572L582 572L582 570L580 570M496 571L496 573L498 573L498 571L496 571M582.667 573.333L583.333 573.667L582.667 573.333M498.667 574.333L499.333 574.667L498.667 574.333M584 575L584 577L586 577L586 575L584 575M500.667 577.333L501.333 577.667L500.667 577.333M586 578L586 580L588 580L588 578L586 578M502 579L502 581L504 581L504 579L502 579M588.667 581.333L589.333 581.667L588.667 581.333M504 582L504 584L506 584L506 582L504 582M590 583L590 585L592 585L592 583L590 583M506.667 585.333L507.333 585.667L506.667 585.333M508 587L508 589L510 589L510 587L508 587M592.667 587.333L593.333 587.667L592.667 587.333M594 589L594 591L596 591L596 589L594 589M510.667 591.333L511.333 591.667L510.667 591.333M596 591L596 593L598 593L598 591L596 591M512 593L512 595L514 595L514 593L512 593M598.667 595.333L599.333 595.667L598.667 595.333M514.667 596.333L515.333 596.667L514.667 596.333M600 597L600 599L602 599L602 597L600 597M516.667 599.333L517.333 599.667L516.667 599.333M602.667 600.333L603.333 600.667L602.667 600.333M518 601L518 603L520 603L520 601L518 601M604.667 603.333L605.333 603.667L604.667 603.333M520 604L520 606L522 606L522 604L520 604M606 605L606 607L608 607L608 605L606 605M522 607L522 609L524 609L524 607L522 607M608 608L608 610L610 610L610 608L608 608M524 609L524 611L526 611L526 609L524 609M610.667 611.333L611.333 611.667L610.667 611.333M526.667 613.333L527.333 613.667L526.667 613.333M612 613L612 615L614 615L614 613L612 613M528 615L528 617L530 617L530 615L528 615M614 616L614 618L616 618L616 616L614 616M530 618L530 620L532 620L532 618L530 618M616.667 619.333L617.333 619.667L616.667 619.333M532.667 621.333L533.333 621.667L532.667 621.333M618 621L618 623L620 623L620 621L618 621M534 623L534 625L536 625L536 623L534 623M620.667 625.333L621.333 625.667L620.667 625.333M536 626L536 628L538 628L538 626L536 626M622 627L622 629L624 629L624 627L622 627M538 629L538 631L540 631L540 629L538 629M624 629L624 631L626 631L626 629L624 629M540 631L540 633L542 633L542 631L540 631M626.667 633.333L627.333 633.667L626.667 633.333M542.667 635.333L543.333 635.667L542.667 635.333M628 635L628 637L630 637L630 635L628 635M544 637L544 639L546 639L546 637L544 637M630 638L630 640L632 640L632 638L630 638M546 640L546 642L548 642L548 640L546 640M632.667 641.333L633.333 641.667L632.667 641.333M548.667 643.333L549.333 643.667L548.667 643.333M634 643L634 645L636 645L636 643L634 643M550 645L550 647L552 647L552 645L550 645M636 646L636 648L638 648L638 646L636 646M552.667 649.333L553.333 649.667L552.667 649.333M638.667 649.333L639.333 649.667L638.667 649.333M554 651L554 653L556 653L556 651L554 651M640 651L640 653L642 653L642 651L640 651M556 653L556 655L558 655L558 653L556 653M642.667 655.333L643.333 655.667L642.667 655.333M558.667 657.333L559.333 657.667L558.667 657.333M644 657L644 659L646 659L646 657L644 657M560 659L560 661L562 661L562 659L560 659M646 659L646 661L648 661L648 659L646 659M562 662L562 664L564 664L564 662L562 662M648.667 663.333L649.333 663.667L648.667 663.333M564.667 665.333L565.333 665.667L564.667 665.333M650 665L650 667L652 667L652 665L650 665M566 667L566 669L568 669L568 667L566 667M652.667 668.333L653.333 668.667L652.667 668.333M568.667 671.333L569.333 671.667L568.667 671.333M654.667 671.333L655.333 671.667L654.667 671.333M570 673L570 675L572 675L572 673L570 673M656 673L656 675L658 675L658 673L656 673M572 675L572 677L574 677L574 675L572 675M658 676L658 678L660 678L660 676L658 676M574.667 679.333L575.333 679.667L574.667 679.333M660.667 679.333L661.333 679.667L660.667 679.333M576 681L576 683L578 683L578 681L576 681M662 681L662 683L664 683L664 681L662 681M578 684L578 686L580 686L580 684L578 684M664 684L664 686L666 686L666 684L664 684M580.667 687.333L581.333 687.667L580.667 687.333M666.667 687.333L667.333 687.667L666.667 687.333M582 689L582 691L584 691L584 689L582 689M668 689L668 691L670 691L670 689L668 689M584.667 693.333L585.333 693.667L584.667 693.333M670.667 693.333L671.333 693.667L670.667 693.333M586 695L586 697L588 697L588 695L586 695M672 695L672 697L674 697L674 695L672 695M588 697L588 699L590 699L590 697L588 697M674 697L674 699L676 699L676 697L674 697M590.667 701.333L591.333 701.667L590.667 701.333M676.667 701.333L677.333 701.667L676.667 701.333M592 703L592 705L594 705L594 703L592 703M678 703L678 705L680 705L680 703L678 703M594 706L594 708L596 708L596 706L594 706M680 706L680 708L682 708L682 706L680 706M596.667 709.333L597.333 709.667L596.667 709.333M682.667 709.333L683.333 709.667L682.667 709.333M598 711L598 713L600 713L600 711L598 711M684 711L684 713L686 713L686 711L684 711M686 714L686 716L688 716L688 714L686 714M600.667 715.333L601.333 715.667L600.667 715.333M602 717L602 719L604 719L604 717L602 717M688.667 717.333L689.333 717.667L688.667 717.333M690 719L690 721L692 721L692 719L690 719M604.667 720.333L605.333 720.667L604.667 720.333M606.667 723.333L607.333 723.667L606.667 723.333M692.667 723.333L693.333 723.667L692.667 723.333M608 725L608 727L610 727L610 725L608 725M694.667 725.333L695.333 725.667L694.667 725.333M696 727L696 729L698 729L698 727L696 727M610 728L610 730L612 730L612 728L610 728M612.667 731.333L613.333 731.667L612.667 731.333M698.667 731.333L699.333 731.667L698.667 731.333M614 733L614 735L616 735L616 733L614 733M700 733L700 735L702 735L702 733L700 733M702.667 736.333L703.333 736.667L702.667 736.333M616.667 737.333L617.333 737.667L616.667 737.333M618 739L618 741L620 741L620 739L618 739M704.667 739.333L705.333 739.667L704.667 739.333M706 741L706 743L708 743L708 741L706 741M620.667 742.333L621.333 742.667L620.667 742.333M708 744L708 746L710 746L710 744L708 744M622.667 745.333L623.333 745.667L622.667 745.333M624 747L624 749L626 749L626 747L624 747M710.667 747.333L711.333 747.667L710.667 747.333M712 749L712 751L714 751L714 749L712 749M626 750L626 752L628 752L628 750L626 750M714 752L714 754L716 754L716 752L714 752M628 753L628 755L630 755L630 753L628 753M630 755L630 757L632 757L632 755L630 755M716.667 755.333L717.333 755.667L716.667 755.333M718 757L718 759L720 759L720 757L718 757M632.667 759.333L633.333 759.667L632.667 759.333M634 761L634 763L636 763L636 761L634 761M720.667 761.333L721.333 761.667L720.667 761.333M722 763L722 765L724 765L724 763L722 763M636 764L636 766L638 766L638 764L636 764M724 765L724 767L726 767L726 765L724 765M638.667 767.333L639.333 767.667L638.667 767.333M640 769L640 771L642 771L642 769L640 769M726.667 769.333L727.333 769.667L726.667 769.333M398 771L398 785L400 785L400 771L398 771M728 771L728 773L730 773L730 771L728 771M642 772L642 774L644 774L644 772L642 772M730.667 774.333L731.333 774.667L730.667 774.333M644.667 775.333L645.333 775.667L644.667 775.333M646.667 777.333L647.333 777.667L646.667 777.333M732.667 777.333L733.333 777.667L732.667 777.333M648.667 779.333L649.333 779.667L648.667 779.333M734 779L734 781L736 781L736 779L734 779M650.667 780.333L651.333 780.667L650.667 780.333M652 781L652 783L654 783L654 781L652 781M736 782L736 784L738 784L738 782L736 782M654 783L654 784L660 785L654 783M660 785L660 786C678.998 790.523 700.581 788 720 788C725.713 788 736.355 790.159 740 785C714.29 789.773 685.956 785.003 660 785z"/>
</svg>
